<svg width="100" height="205" viewBox="0 0 100 205" fill="none" xmlns="http://www.w3.org/2000/svg">
<path d="M89.5705 83.3272C116.65 116.401 146.784 154.886 159.271 196.414C161.918 205.342 172.913 206.492 178.953 200.54C217.571 162.326 257.477 125.532 294.398 85.7621C300.981 78.6603 295.28 64.8627 284.964 66.2154C262.228 69.3266 239.492 69.8677 216.553 70.003C210.173 70.0706 205.354 76.0226 205.558 82.1098C206.236 100.371 208.883 117.889 212.209 135.677C199.857 147.784 187.437 159.891 175.085 171.998C159.814 135.001 133.278 101.386 108.777 70.8146C93.7105 52.0795 76.6076 30.8419 57.1972 12.8508C62.9661 9.33373 68.1919 4.7345 73.2142 0H0.866394C36.4295 17.5177 65.2736 53.7028 89.5705 83.3272Z" fill="#024D15"/>
</svg>
