<svg width="160" height="511" viewBox="0 0 160 511" fill="none" xmlns="http://www.w3.org/2000/svg">
<g style="mix-blend-mode:screen" opacity="0.1">
<path d="M221.002 208.483C288.387 291.234 363.372 387.522 394.446 491.425C401.033 513.763 428.392 516.639 443.423 501.748C539.518 406.136 638.821 314.079 730.694 214.575C747.076 196.807 732.89 162.285 707.22 165.67C650.643 173.454 594.067 174.808 536.984 175.146C521.109 175.316 509.119 190.207 509.625 205.437C511.314 251.128 517.901 294.957 526.176 339.462C495.439 369.753 464.533 400.044 433.796 430.335C395.797 337.77 329.764 253.666 268.796 177.177C231.304 130.302 188.745 77.1659 140.445 32.1525C154.8 23.3528 167.804 11.8456 180.301 0H0.270706C88.766 43.8289 160.542 134.363 221.002 208.483Z" fill="#05A52E"/>
</g>
</svg>
