<svg width="360" height="836" viewBox="0 0 360 836" fill="none" xmlns="http://www.w3.org/2000/svg">
<g style="mix-blend-mode:screen" opacity="0.1">
<path d="M80.8852 13.3562C301.54 157.232 471.716 395.953 595.803 624.7C588.375 631.294 581.115 637.887 573.518 644.143C567.609 649.046 561.7 654.118 555.622 659.021C474.755 531.714 383.758 412.184 286.177 297.388C237.386 240.074 186.739 184.451 134.741 129.843C94.5601 87.5764 54.042 31.6154 -4.03399 17.0757C-9.60524 15.7232 -14.1635 21.4714 -12.6441 26.7125C1.8749 76.418 45.6007 108.879 80.7164 145.566C108.741 174.984 136.26 204.739 163.272 235.171C192.479 209.304 238.062 250.387 209.361 278.79C207.842 280.312 206.323 281.665 204.803 283.186C217.127 297.557 229.789 311.589 241.945 326.129C340.37 442.785 431.029 566.203 512.066 695.539C505.481 701.118 498.897 706.866 492.144 712.615C486.235 716.165 480.664 720.054 474.924 723.942C470.197 716.165 462.093 710.924 449.938 712.615C330.578 729.014 211.725 727.831 91.5212 732.057C81.7293 732.395 71.9375 738.651 67.7168 747.611C32.0947 822.846 -25.4748 890.811 -43.2015 973.315C-45.5651 984.135 -31.7214 990.56 -24.4619 982.783C9.1344 946.264 76.3269 787.849 126.299 789.371C220.335 792.414 315.89 788.018 409.588 777.029C367.889 816.76 330.409 862.407 295.294 902.476C258.152 944.743 217.803 989.714 182.349 1037.39C120.222 1013.21 39.1853 1037.56 -21.5918 1052.78C-39.4873 1057.17 -41.0068 1080 -29.6955 1091.32C-11.2935 1109.92 9.1344 1125.98 30.9129 1140.01H193.323C227.595 1095.89 261.36 1034.52 273.346 1019.64C350.837 922.088 435.925 819.465 537.221 745.752C543.467 741.187 546.337 734.424 547.012 727.492C581.959 694.863 621.296 663.247 650.502 626.053C802.614 528.67 942.739 409.986 1071.22 283.355C1057.37 267.294 1043.7 251.064 1029.68 235.34C1029.18 235.848 1028.5 236.186 1028 236.693C906.273 357.068 773.745 468.145 631.256 563.329C561.363 444.137 479.482 331.539 390.849 225.704C323.319 144.721 244.646 52.7487 149.091 0H70.9245C72.1063 4.90292 75.314 9.63678 80.8852 13.3562Z" fill="#989897"/>
</g>
</svg>
