<svg width="59" height="26" viewBox="0 0 59 26" fill="none" xmlns="http://www.w3.org/2000/svg">
<path d="M23.782 21.3451C23.4438 21.6433 23.1099 21.9481 22.7783 22.2562C20.0106 24.8259 16.1333 26.3245 12.3332 25.9408C5.75768 25.2754 0.595745 19.5779 0.595745 13.0044C0.595745 12.5867 0.615578 12.1701 0.657446 11.7557H5.86235C5.78743 12.1658 5.74887 12.5834 5.74887 13.0044C5.74887 17.3469 9.29887 20.8792 13.6631 20.8792C16.2986 20.8792 18.6884 19.249 20.6309 17.5958L23.782 21.3451Z" fill="#05A52E"/>
<path d="M32.1712 14.4121C29.7119 16.4161 27.2119 18.3643 24.8144 20.4374L21.6732 16.6979C21.7801 16.6069 21.8991 16.506 22.028 16.3964C23.4757 15.1707 26.2875 12.8093 28.9528 10.5816L32.1712 14.4121Z" fill="#031541"/>
<path d="M59 13.0044C59 13.3596 58.9857 13.7148 58.957 14.0679C58.5593 18.9355 55.3222 23.2735 50.7673 25.0846C45.3443 27.2411 40.5118 25.1745 36.2566 21.7047C34.5841 20.3409 32.5755 18.7984 30.8358 17.3853L32.5832 15.9634L32.992 15.6312L34.994 14.0021C36.5122 15.2891 40.0534 18.2777 41.5365 19.4244C43.0944 20.6303 45.0776 21.1193 47.0245 20.8014C50.7795 20.1896 53.8458 16.8294 53.8458 13.0044C53.8458 10.3284 52.2757 7.77944 50.0611 6.32026C48.6971 5.42128 47.3066 5.13186 45.9426 5.24807C43.6012 5.44869 41.3381 6.84758 39.4144 8.42955C38.8448 8.89767 38.2762 9.36579 37.7077 9.83611L37.3761 9.44144L34.4783 5.99246C34.5224 5.95519 34.5654 5.9212 34.6061 5.88721C34.6127 5.88173 34.6182 5.87735 34.6249 5.87187C37.4433 3.57182 40.1173 0.799257 43.8745 0.169977C48.9593 -0.680757 54.1917 1.72235 56.954 6.02535C58.2871 8.10285 59 10.541 59 13.0044Z" fill="#05A52E"/>
<path d="M33.4098 6.87241L30.0083 9.70197L33.2443 13.5533L36.6458 10.7237L33.4098 6.87241Z" fill="#031541"/>
</svg>
